<svg version="1.1" id="Layer_1" xmlns="http://www.w3.org/2000/svg" x="0px" y="0px"
	 viewBox="0 0 300 300" style="enable-background:new 0 0 300 300;">
	<style type="text/css">
		.st0{fill:#1A7A43;}
		.st1{fill:#25A55F;}
		.st2{fill:none;stroke:#000000;stroke-width:1.2113;stroke-linecap:round;stroke-linejoin:round;}
		.st3{fill:none;stroke:#000000;stroke-width:0.4272;stroke-linecap:round;stroke-linejoin:round;}
		.st4{fill:#1F140F;}
		.st5{fill:#FFFFFF;}
	</style>
<g>
	<g>
		<g id="XMLID_974_">
			<g>
				<path class="st0" d="M243.9,121.6c-10.1-5-20.8-7.3-31.5-7.3c0,0,0,0,0,0v0l61.9-35.8c13.2,22.9,12.3,50.1,0,71.5
					c-6.1-10.5-14.9-19.7-26.2-26.2C246.8,123.1,245.3,122.3,243.9,121.6z"/>
				<path class="st1" d="M274.3,221.6L212.6,186c12.1,0,24.3-3,35.5-9.5c8.5-4.9,15.5-11.4,21.1-18.6c1.9-2.4,3.5-4.9,5.1-7.5
					c12.3,21.4,13.2,48.5,0,71.4V221.6L274.3,221.6C274.3,221.6,274.3,221.6,274.3,221.6z"/>
				<path class="st1" d="M274.3,78.5l-61.9,35.8v0v0c0.2-0.3,0.4-0.6,0.6-1c0.2-0.3,0.4-0.7,0.5-1c0.4-0.7,0.7-1.3,1.1-2
					c0,0,0,0,0,0c0.3-0.7,0.7-1.4,1-2.1c0,0,0,0,0,0c2.9-6.3,4.9-13,5.8-20.1c0.4-3.1,0.6-6.4,0.6-9.6c0-1.6-0.1-3.2-0.2-4.9
					c-0.8-11.2-4.1-21.9-9.4-30.9c12.3,0,24.5,3.2,35.2,9.3C258.4,58.1,267.7,67.1,274.3,78.5z"/>
				<path class="st0" d="M222,78.5c0,3.3-0.2,6.5-0.6,9.6c-1,7.1-2.9,13.8-5.8,20.1c0,0,0,0,0,0c-0.3,0.7-0.6,1.4-1,2.1c0,0,0,0,0,0
					c-0.3,0.7-0.7,1.3-1.1,2c-0.2,0.3-0.4,0.7-0.5,1c-0.2,0.3-0.4,0.6-0.6,1c-6.5-11.3-15.6-20.1-26.2-26.2l26.2-45.3
					c5.3,9.2,8.7,19.7,9.4,30.9C221.9,75.2,222,76.8,222,78.5z"/>
				<path class="st0" d="M222,150.4h52.4c-1.5,2.6-3.2,5.1-5.1,7.5c-5.6,7.2-12.7,13.7-21.1,18.5c-11.3,6.5-23.5,9.5-35.7,9.5h0l0,0
					v0c3.9-6.8,6.6-14.3,8.1-21.8C221.5,159.5,222,154.8,222,150.4z"/>
				<path class="st0" d="M274.3,221.6c-13.2,22.9-37.2,35.7-61.9,35.7c2.7-4.6,4.8-9.5,6.4-14.7c0,0,0,0,0,0
					c1.6-5.2,2.6-10.6,3-16.3c0.1-1.6,0.2-3.2,0.2-4.9c0-1.2,0-2.4-0.1-3.6c0-0.4,0-0.8-0.1-1.2c-0.5-8-2.4-15.7-5.4-22.7
					c-1.2-2.8-2.5-5.5-4-8c0,0,0.1,0,0.1,0L274.3,221.6z"/>
				<path class="st1" d="M213,115.5c-0.2-0.4-0.4-0.7-0.6-1.1c10.6,0,21.4,2.2,31.5,7.1c1.4,0.7,2.9,1.5,4.3,2.3
					c11.3,6.5,20.1,15.8,26.2,26.3v0.2H222c0-3.6-0.2-7.2-0.7-10.7c-0.1-0.4-0.1-0.8-0.2-1.2c0,0,0,0,0,0c-1.2-7.7-3.7-15-7.5-22
					C213.4,116.2,213.2,115.9,213,115.5z"/>
				<path class="st0" d="M212.5,185.8C212.4,185.9,212.4,185.9,212.5,185.8L212.5,185.8C212.4,185.8,212.4,185.8,212.5,185.8
					L212.5,185.8L212.5,185.8z"/>
				<path class="st0" d="M220.6,164c-1.5,7.6-4.3,15-8.2,21.4c0,0,0,0,0,0c-11.3-18.7-31.4-32.7-54.8-35H222
					C222,154.8,221.5,159.5,220.6,164z"/>
				<path class="st1" d="M212.4,114.5c0.2,0.4,0.4,0.7,0.6,1c0.2,0.4,0.4,0.7,0.6,1.1c3.8,7.1,6.2,14.3,7.5,22c0,0,0,0,0,0
					c0.1,0.4,0.1,0.8,0.2,1.2c0.5,3.5,0.7,7,0.7,10.7h-64.4c-0.7-0.1-1.3-0.1-2-0.2C179.9,148.5,200.8,134.5,212.4,114.5
					C212.4,114.5,212.4,114.5,212.4,114.5z"/>
				<path class="st1" d="M186.3,212c11.3-6.5,20.1-15.6,26.1-26.2c0,0,0,0,0,0.1l0,0l0,0c0,0,0,0,0,0v0c0,0,0,0,0,0.1
					c0,0,0.1,0,0.1,0c1.5,2.6,2.8,5.3,4,8c3,7.1,4.8,14.7,5.4,22.7c0,0.4,0.1,0.8,0.1,1.2c0.1,1.2,0.1,2.4,0.1,3.6
					c0,1.6-0.1,3.2-0.2,4.9c-0.3,4.8-1.1,9.5-2.3,14l-0.6,2.2c0,0,0,0,0,0c-1.6,5.2-3.8,10.1-6.4,14.5L186.3,212z"/>
				<path class="st1" d="M211.2,257.3c0.3,0,0.6,0,0.9,0c-12,21.4-35,35.8-61.5,35.8v-71.3c6.1,10.4,14.7,19.5,25.9,26
					C187.5,254.1,199.5,257.2,211.2,257.3z"/>
				<path class="st1" d="M186.2,88.1C186.2,88.1,186.2,88.1,186.2,88.1L186.2,88.1c-10.8-6.2-23.2-9.5-35.7-9.5v-0.1
					c3.9-6.6,8.9-12.8,14.9-18.1c3.4-3,7.1-5.6,11.2-8c10.9-6.3,22.8-9.4,34.5-9.6c0.3,0,0.6,0,0.9,0c0.1,0,0.2,0,0.3,0L186.2,88.1z
					"/>
				<path class="st0" d="M212.4,114.3L212.4,114.3C212.4,114.3,212.4,114.3,212.4,114.3L212.4,114.3L212.4,114.3
					c-24.6,0-48.6,12.8-61.8,35.6l35.6-61.7c5.3,3,10.2,6.7,14.6,11.1C205.2,103.6,209.1,108.6,212.4,114.3L212.4,114.3z"/>
				<path class="st1" d="M150.6,150.4c13.3,22.7,37.2,35.4,61.7,35.4l0,0c-6.1,10.5-14.9,19.6-26.1,26.2l0-0.1l0,0.1h0L150.6,150.4
					L150.6,150.4z"/>
				<path class="st0" d="M150.6,150.4l35.6,61.6c-11.3,6.5-23.5,9.6-35.7,9.6v0c0,0,0,0,0-0.1C162.7,200.2,163.7,173.2,150.6,150.4z
					"/>
				<path class="st1" d="M150.6,78.5c12.5,0,24.8,3.3,35.7,9.6l-35.6,61.7C163.7,127,162.8,99.9,150.6,78.5
					C150.5,78.6,150.5,78.6,150.6,78.5L150.6,78.5L150.6,78.5L150.6,78.5z"/>
				<path class="st0" d="M186.2,212l26.2,45.3c-0.1,0-0.2,0-0.3,0c-0.3,0-0.6,0-0.9,0c-11.8-0.2-23.7-3.3-34.6-9.6
					c-11.2-6.5-20-15.6-26.1-26.1v-0.1v0C162.7,221.5,175,218.5,186.2,212z"/>
				<path class="st0" d="M165.5,60.3c-6,5.2-11,11.4-14.9,18.1V7c26.5,0,49.6,14.4,61.5,35.8v0c-0.3,0-0.6,0-0.9,0
					c-11.7,0.1-23.7,3.2-34.7,9.6C172.5,54.7,168.8,57.4,165.5,60.3z"/>
				<path class="st1" d="M150.6,150.3C150.6,150.4,150.6,150.4,150.6,150.3L150.6,150.3L150.6,150.3z"/>
				<path class="st1" d="M150.6,150.2C150.6,150.3,150.6,150.3,150.6,150.2L150.6,150.2z"/>
				<path class="st1" d="M150.6,7v71.4c0,0,0,0.1-0.1,0.1c-6.1-10.5-14.9-19.7-26.2-26.2c-9.2-5.3-19-8.3-28.9-9.3
					c-2.3-0.2-4.6-0.3-6.8-0.3C100.9,21.4,124.1,7,150.6,7z"/>
				<path class="st1" d="M150.6,150C150.6,150,150.6,150,150.6,150C150.6,150.1,150.6,150.1,150.6,150
					C150.5,150.1,150.5,150.1,150.6,150L150.6,150L150.6,150z"/>
				<path class="st1" d="M150.5,78.5C150.5,78.5,150.5,78.5,150.5,78.5C150.5,78.5,150.5,78.5,150.5,78.5L150.5,78.5
					C150.5,78.5,150.5,78.5,150.5,78.5z"/>
				<path class="st0" d="M88.6,257.3c0.3,0,0.6,0,0.9,0c11.9-0.1,23.8-3.2,34.9-9.6c10.2-5.9,18.5-14,24.5-23.3
					c0.4-0.6,0.8-1.3,1.2-1.9c0.2-0.3,0.4-0.6,0.5-0.9c0,0,0,0.1,0.1,0.1v71.3C124.1,293.1,101,278.7,88.6,257.3z"/>
				<path class="st1" d="M150.4,150.3c0-0.1,0.1-0.1,0.1-0.1c-13.2,22.9-12.7,50,0,71.3c0,0,0,0.1,0,0.1h0c0,0,0,0,0,0
					c-3.2,0-6.3-0.2-9.3-0.6c-9.3-1.2-18.2-4.3-26.3-9L150.4,150.3z"/>
				<path class="st0" d="M150.4,149.9C150.5,149.9,150.5,149.9,150.4,149.9C150.5,149.9,150.5,149.9,150.4,149.9z"/>
				<path class="st1" d="M150.5,150.1C150.5,150.1,150.4,150.1,150.5,150.1C150.4,150.1,150.5,150.1,150.5,150.1z"/>
				<path class="st1" d="M150.4,150.1L150.4,150.1C150.4,150.1,150.4,150.1,150.4,150.1z"/>
				<path class="st0" d="M150.3,150.4L150.3,150.4C150.3,150.4,150.3,150.4,150.3,150.4z"/>
				<path class="st1" d="M150.4,221.6c0,0,0,0.1,0.1,0.1c-0.2,0.3-0.3,0.6-0.5,0.9c-0.4,0.7-0.8,1.3-1.2,1.9
					c-5.9,9.3-14.4,17.4-24.6,23.3c-10.9,6.3-22.4,9.4-34.7,9.6c-0.3,0-0.6,0-0.9,0c0,0,0,0-0.1,0l26.1-45.3
					c8.1,4.7,17.1,7.7,26.4,8.9C144.2,221.3,147.3,221.5,150.4,221.6z"/>
				<path class="st0" d="M150.5,78.5C150.5,78.5,150.5,78.6,150.5,78.5C150.5,78.6,150.5,78.6,150.5,78.5L150.5,78.5
					C150.5,78.6,150.5,78.6,150.5,78.5c-12.7,21.4-13.2,48.5,0,71.4c0-0.1-0.1-0.1-0.1-0.2l-35.6-61.6c0,0,0,0,0,0
					c10.5-6.1,22.2-9.2,33.5-9.5C149,78.5,149.7,78.5,150.5,78.5L150.5,78.5L150.5,78.5L150.5,78.5
					C150.5,78.5,150.5,78.5,150.5,78.5z"/>
				<path class="st1" d="M150.3,149.7c-13.3-22.7-37.1-35.4-61.6-35.4c0.7-1.3,1.5-2.6,2.3-3.9c0.1-0.1,0.1-0.2,0.2-0.3
					c3.8-5.6,8.3-10.7,13.7-15.2c3-2.5,6.3-4.7,9.8-6.7l0-0.1c0,0,0,0,0,0L150.3,149.7z"/>
				<path class="st1" d="M88.5,42.8l26.1,45.3c-3.5,2-6.8,4.3-9.8,6.8c-5.4,4.3-9.9,9.4-13.7,15.2c-0.1,0.1-0.1,0.2-0.2,0.3
					c-0.8,1.3-1.6,2.6-2.4,3.9h0l-0.1-0.1c-0.7-1.3-1.4-2.6-2-3.9c-4.7-9.9-7.4-20.2-7.4-31.6C78.9,65.6,82.4,53.3,88.5,42.8z"/>
				<path class="st0" d="M79,150.4c0-4.8,0.5-9.5,1.4-14.1c1.5-7.6,4.3-14.9,8.2-21.7l0-0.1c0,0,0,0,0,0
					c11.7,20.2,32.9,34.3,57.6,35.8c-0.6,0-1.2,0.1-1.7,0.1H79z"/>
				<path class="st0" d="M88.5,185.8c24.6,0,48.4-12.7,61.7-35.4L114.7,212C104.2,205.9,95,197.1,88.5,185.8
					C88.5,185.8,88.5,185.8,88.5,185.8z"/>
				<path class="st0" d="M88.5,42.8C88.5,42.8,88.6,42.8,88.5,42.8c2.3,0,4.6,0.1,6.9,0.3c9.9,0.9,19.7,4,28.9,9.3
					c11.3,6.5,20.1,15.7,26.2,26.2h0c-0.7,0-1.5,0-2.2,0c-11.4,0.3-22.9,3.4-33.5,9.5c0,0,0,0,0,0L88.5,42.8z"/>
				<path class="st0" d="M88.5,185.9C88.5,185.9,88.5,185.9,88.5,185.9C88.5,185.9,88.5,185.9,88.5,185.9L88.5,185.9L88.5,185.9
					C88.5,185.8,88.5,185.8,88.5,185.9c6.5,11.2,15.7,20,26.2,26.1l0,0.1c0,0-0.1,0-0.1-0.1l-26.2,45c-6-10.4-9.4-22.5-9.4-35.4
					C78.9,208.6,82.4,196.4,88.5,185.9c0,0.1,0,0.1,0,0.1V185.9z"/>
				<path class="st1" d="M88.5,185.4v0.4c-5.1-8.8-8.1-18.1-9.1-27.4c-0.3-2.7-0.4-5.3-0.4-8h65.4c-23.9,2-44.4,15.5-55.8,35.2
					L88.5,185.4C88.5,185.4,88.5,185.4,88.5,185.4z"/>
				<path class="st1" d="M88.2,114.3c-12.1,0-24.3,3.1-35.4,9.6c-11.3,6.5-20.1,15.7-26.2,26.2c-12.3-21.4-13.2-48.5-0.1-71.4
					L88.2,114.3z"/>
				<path class="st0" d="M26.4,78.5C33,67.1,42.3,58.1,53,52.1c10.7-6.1,22.8-9.3,35.2-9.3c-6,10.5-9.4,22.8-9.4,35.9
					c0,11.4,2.8,21.8,7.6,31.7c0.6,1.3,1.3,2.6,2,3.9L26.6,78.5c0,0,0,0.1-0.1,0.1L26.4,78.5L26.4,78.5z"/>
				<path class="st1" d="M88.4,185.8c-10.2,0-20.6-2.1-30.3-6.6c-1.1-0.5-2.2-1.1-3.2-1.6c-0.7-0.4-1.4-0.8-2.1-1.2
					c-11.3-6.5-20.1-15.8-26.2-26H79c0,2.6,0.1,5.3,0.4,8C80.5,167.7,83.4,177.1,88.4,185.8z"/>
				<path class="st0" d="M26.6,150.4c6.1,10.3,14.9,19.5,26.2,26c0.7,0.4,1.4,0.8,2.1,1.2c1.1,0.6,2.1,1.1,3.2,1.6
					c9.7,4.6,20,6.7,30.2,6.7l-61.9,35.6C13.4,198.6,14.3,171.7,26.6,150.4L26.6,150.4z"/>
				<path class="st0" d="M79,150.4H26.6c0,0,0-0.1,0-0.1c6.1-10.5,14.9-19.8,26.2-26.3c11.2-6.5,23.5-9.5,35.6-9.5l0.2,0.1
					c-3.9,6.8-6.7,14.1-8.2,21.8C79.4,140.8,79,145.5,79,150.4z"/>
				<path class="st1" d="M26.5,221.5c0,0.1,0.1,0.1,0.1,0.2l0-0.1l61.8-35.7c-6,10.5-9.6,22.7-9.6,35.6c0,6.5,0.9,12.8,2.5,18.8
					c1.6,6,4,11.7,6.9,16.9C63.4,257.3,39.6,244.5,26.5,221.5L26.5,221.5z"/>
			</g>
			<g>
				<polyline class="st2" points="88.5,185.8 88.5,185.8 88.5,185.8 				"/>
				<path class="st2" d="M150.5,150.1C150.5,150.1,150.5,150.1,150.5,150.1"/>
				<line class="st2" x1="150.5" y1="150.1" x2="150.5" y2="150.1"/>
				<line class="st2" x1="150.5" y1="150.1" x2="150.5" y2="150.1"/>
				<line class="st3" x1="150.5" y1="150.1" x2="150.5" y2="150"/>
				<path class="st2" d="M150.5,150.1C150.5,150.1,150.5,150.1,150.5,150.1C150.5,150.1,150.5,150.1,150.5,150.1L150.5,150.1"/>
				<line class="st2" x1="150.5" y1="150.1" x2="150.5" y2="150.1"/>
				<path class="st2" d="M150.5,150C150.5,150,150.5,150,150.5,150"/>
				<line class="st3" x1="150.5" y1="150.1" x2="150.5" y2="150"/>
				<line class="st2" x1="150.5" y1="150.1" x2="150.5" y2="150.1"/>
				<path class="st3" d="M150.5,150C150.5,150.1,150.5,150.1,150.5,150"/>
				<polyline class="st2" points="150.5,150 150.5,150 150.5,150 				"/>
				<path class="st2" d="M150.5,150C150.5,150,150.5,150,150.5,150"/>
			</g>
		</g>
	</g>
	<path class="st4" d="M258.1,241.5C258.2,241.5,258.2,241.5,258.1,241.5C258.2,241.5,258.2,241.5,258.1,241.5
		C258.1,241.5,258.1,241.5,258.1,241.5z"/>
	<path class="st4" d="M258.1,241.5C258.1,241.5,258.1,241.5,258.1,241.5C258.1,241.5,258.2,241.4,258.1,241.5
		C258.2,241.4,258.1,241.5,258.1,241.5L258.1,241.5z"/>
	<path class="st4" d="M258.1,241.5C258.1,241.5,258.1,241.5,258.1,241.5C258.1,241.5,258.1,241.5,258.1,241.5
		C258.1,241.5,258.1,241.5,258.1,241.5z"/>
	<path class="st4" d="M258.1,241.5C258.1,241.5,258.1,241.5,258.1,241.5C258.1,241.5,258.1,241.5,258.1,241.5
		C258.1,241.5,258.1,241.5,258.1,241.5C258.1,241.5,258.1,241.5,258.1,241.5z"/>
	<path class="st4" d="M258.1,241.5L258.1,241.5C258.1,241.5,258.1,241.5,258.1,241.5C258.1,241.5,258.1,241.5,258.1,241.5
		L258.1,241.5z"/>
	<ellipse transform="matrix(0.3714 -0.9285 0.9285 0.3714 -61.9495 391.4637)" class="st4" cx="258.1" cy="241.5" rx="0" ry="0"/>
	<polygon class="st4" points="258.1,241.5 258.1,241.5 258.1,241.5 258.1,241.5 258.1,241.5 258.1,241.5 	"/>
	<path class="st4" d="M258.1,241.5C258.1,241.5,258.2,241.5,258.1,241.5C258.2,241.5,258.1,241.5,258.1,241.5
		C258.1,241.5,258.1,241.5,258.1,241.5z"/>
	<polygon class="st4" points="258.1,241.5 258.1,241.5 258.1,241.5 	"/>
	<polygon class="st4" points="258.1,241.5 258.1,241.5 258.1,241.5 258.1,241.5 258.1,241.5 258.1,241.5 	"/>
	<path class="st4" d="M258.1,241.5C258.1,241.5,258.1,241.5,258.1,241.5C258.1,241.5,258.1,241.4,258.1,241.5
		C258.1,241.4,258.1,241.5,258.1,241.5C258.1,241.5,258.1,241.5,258.1,241.5z"/>
	<polygon class="st4" points="258.1,241.5 258.1,241.5 258.1,241.5 258.1,241.5 258.1,241.5 258.1,241.5 	"/>
	<circle class="st4" cx="258.1" cy="241.5" r="0"/>
	<g>
		<path class="st5" d="M150.5,41C150.5,41,150.4,41,150.5,41c-20.1,34.9-18.7,76.2,0,108.8C169.2,117.2,170.6,75.9,150.5,41
			C150.5,41,150.5,41,150.5,41C150.5,41,150.5,41,150.5,41z"/>
		<path class="st5" d="M150.5,259C150.5,259,150.5,259,150.5,259c20.1-34.9,18.7-76.3,0-108.9C131.8,182.7,130.3,224.1,150.5,259
			C150.4,259,150.4,259,150.5,259C150.5,259,150.5,259,150.5,259z"/>
		<path class="st5" d="M56.6,95.8c0,0-0.3-0.1-0.3-0.1c20.2,34.9,56.5,54.2,94.1,54.3c-18.9-32.5-53.7-54.3-94-54.3
			C56.4,95.7,56.6,95.8,56.6,95.8C56.6,95.8,56.6,95.8,56.6,95.8z"/>
		<path class="st5" d="M244.5,204.3c0,0,0.1,0,0.1,0c-20.2-34.9-56.6-54.2-94.2-54.3C169.3,182.5,204.3,204.4,244.5,204.3
			C244.6,204.4,244.5,204.4,244.5,204.3C244.5,204.4,244.5,204.4,244.5,204.3z"/>
		<path class="st5" d="M56.6,204.3c0,0-0.3,0.2-0.2,0.2c40.3,0,75.2-21.8,94.1-54.3c-37.6,0.1-73.9,19.4-94,54.2
			C56.4,204.4,56.6,204.2,56.6,204.3C56.6,204.3,56.6,204.3,56.6,204.3z"/>
		<path class="st5" d="M244.5,95.7C244.5,95.7,244.6,95.7,244.5,95.7c-40.2-0.1-75.2,21.8-94.1,54.3C188,150,224.4,130.6,244.5,95.7
			C244.6,95.7,244.5,95.8,244.5,95.7C244.5,95.7,244.5,95.7,244.5,95.7z"/>
	</g>
</g>
</svg>
